<svg xmlns="http://www.w3.org/2000/svg" xmlns:xlink="http://www.w3.org/1999/xlink" version="1.1" id="Layer_1" x="0px" y="0px" viewBox="0 0 2560 683" style="enable-background:new 0 0 2560 683;" xml:space="preserve">
<style type="text/css">
	.st0{fill:#FF0000;}
	.st1{fill:#FFFFFF;}
</style>
<g>
	<path class="st0" d="M177,283.7c-6.7-7.6-16.9-13.2-30.8-16.5c6.3-2.3,11.8-5.1,16.3-8.2c4.5-3,8.3-6.5,11.2-10.4s5-8,6.3-12.4   s2-9.1,2-13.8c0-8.6-1.5-16.5-4.4-23.6c-2.9-7.1-7.6-13-14.1-18s-14.8-8.8-25.1-11.5c-10.1-2.7-22.7-4.1-37.2-4.1H23.6v211.2h84.3   c12.5,0,23.9-1.7,33.7-4.8c9.8-3.2,18.1-7.7,24.8-13.5c6.7-5.7,11.8-12.5,15.3-20.2c3.6-7.7,5.3-16.2,5.3-25.1   C187,301.1,183.6,291.3,177,283.7z M72.7,201.9h28.7c5.4,0,10.1,0.5,14.2,1.4c4.1,0.9,7.4,2.4,10,4.4c2.6,2,4.5,4.7,5.8,8   c1.2,3.3,1.8,7.6,1.8,12.5c0,5.1-0.8,9.4-2.4,12.7c-1.7,3.5-3.9,6-6.9,8c-3,2-6.7,3.3-11,4.1c-4.4,0.8-9.2,1.2-14.7,1.2H72.7V201.9   z M137.4,322c-0.9,3.2-2.4,6.2-4.8,8.8c-2.4,2.6-5.6,4.7-9.7,6.3s-9.4,2.4-15.9,2.4H72.5v-52.6h34.3c6.2,0,11.3,0.6,15.4,1.8   c4.1,1.2,7.4,2.9,9.8,5c2.4,2.1,4.1,4.8,5.1,7.9c1.1,3,1.5,6.5,1.5,10.4C138.7,315.3,138.3,318.6,137.4,322z"/>
	<path class="st0" d="M301.4,337.8c6.5,0,12.4-1.1,17.5-3.3s9.5-5.3,13.1-9.4c3.6-4.1,6.3-9.1,8.2-14.8c1.8-5.9,2.9-12.5,2.9-20   v-125h49v125c0,13-2.1,24.8-6.3,35.7c-4.2,10.9-10.3,20.1-18,28c-7.9,7.9-17.4,13.9-28.6,18.3c-11.2,4.4-23.7,6.5-37.8,6.5   c-14.1,0-26.8-2.1-37.9-6.5c-11.2-4.4-20.7-10.4-28.6-18.3c-7.9-7.9-13.8-17.1-18-28c-4.1-10.9-6.2-22.7-6.2-35.7v-125h49v124.8   c0,7.4,0.9,14.1,2.9,20c1.8,5.9,4.5,10.9,8.2,15c3.6,4.1,8,7.3,13.1,9.4S294.9,337.8,301.4,337.8z"/>
	<path class="st0" d="M472.9,337.4h78.3v39.1H424.1V165.4h49v172H472.9z"/>
	<path class="st0" d="M623.1,250.9h7.9c7.3,0,12.4-2.3,15.7-6.8l47.5-68.9c2.6-3.8,5.6-6.3,8.9-7.7c3.3-1.4,7.4-2,12.2-2H758   l-62.6,85.2c-2.3,3-4.5,5.6-7,7.7c-2.4,2-4.8,3.8-7.4,5.1c3.6,1.4,7,3.2,10.1,5.6c3,2.4,5.7,5.6,8.3,9.5l63.8,97.9h-43.8   c-2.9,0-5.1-0.2-7.1-0.6s-3.6-0.9-5.1-1.8c-1.5-0.8-2.7-1.7-3.8-2.9c-1.1-1.1-2.1-2.4-3-3.8l-47.8-73.5c-1.7-2.7-3.9-4.7-6.7-5.7   c-2.7-1.1-6.2-1.7-10.7-1.7h-11.9v89.8h-49V165.4h49v85.5H623.1z"/>
	<rect x="781.1" y="165.4" width="49" height="5.1"/>
	<rect x="781.1" y="185.6" width="49" height="21.2"/>
	<rect x="781.1" y="221.9" width="49" height="21.2"/>
	<rect x="781.1" y="258.2" width="49" height="21.2"/>
	<rect x="781.1" y="294.4" width="49" height="21.2"/>
	<polygon points="908.3,337.4 908.3,351.9 781.1,351.9 781.1,330.7 830,330.7 830,337.4  "/>
	<rect x="781.1" y="367" width="127.3" height="9.5"/>
	<path d="M1058.7,170.5h-83.6c13-5,27.3-7.4,42.9-7.4c7.9,0,15.4,0.8,22.4,2.1C1046.9,166.4,1053.1,168.2,1058.7,170.5z"/>
	<path d="M960,367h102.5c-2.1,1.2-4.2,2.3-6.5,3.3c-12.8,5.6-28,8.5-45.5,8.5c-16,0-30.4-2.7-43.1-8.2   C964.9,369.6,962.5,368.3,960,367z"/>
	<path d="M962.3,299.7c2.1,5.9,4.7,11.2,7.9,15.9h-54.6c-0.3-0.6-0.6-1.2-0.8-1.8c-2.3-6.2-3.9-12.7-5-19.3h50.8   C961.1,296.2,961.7,298.1,962.3,299.7z"/>
	<path d="M958.7,258.2c-0.6,4.1-0.9,8.3-0.9,12.7c0,2.9,0.2,5.7,0.3,8.5h-50c-0.2-2.7-0.3-5.6-0.3-8.5c0-4.4,0.2-8.6,0.6-12.7H958.7   z"/>
	<path d="M918.5,221.9h55.9c-5.1,5.7-9.2,12.7-12.1,21v0.1h-51.4c1.2-5.4,2.9-10.6,4.8-15.6C916.5,225.5,917.4,223.7,918.5,221.9z"/>
	<path d="M1090.5,191.2l-11.5,15.6l-5,6.6c-1.1,1.4-2.3,2.6-3.8,3.6c-1.5,1.1-3.5,1.7-6,1.7c-1.8,0-3.5-0.3-5-1.2   c-1.5-0.8-3.2-1.7-4.8-2.7c-1.8-1.2-3.6-2.4-5.8-3.6c-2.1-1.4-4.5-2.6-7.4-3.6c-0.6-0.3-1.4-0.6-2.1-0.8c-2.4-0.9-5-1.5-7.9-2.1   c-3.8-0.8-8.3-1.2-13.4-1.2c-7.4,0-14.1,1.1-20.2,3.3h-70.3c3.2-4.8,7-9.2,11.2-13.5c2.9-2.7,5.7-5.3,8.9-7.7h137.1   C1086.5,187.4,1088.7,189.2,1090.5,191.2z"/>
	<path d="M1074.2,330.7l13.8,14.5c-1.8,2.3-3.6,4.5-5.7,6.7h-143c-1.4-1.1-2.7-2.6-4.1-3.9c-4.8-5.1-8.9-10.9-12.4-17.2H986   c2,1.4,3.9,2.4,6,3.3c6.7,3,13.9,4.5,21.6,4.5c4.5,0,8.5-0.3,12.2-0.8c3.6-0.5,7.1-1.1,10.1-2.1c3.2-1.1,6.2-2.6,9.1-4.2   c0.5-0.3,0.8-0.5,1.2-0.8c2.4-1.5,5-3.3,7.4-5.4c1.1-1.1,2.4-1.8,3.8-2.4c1.4-0.6,2.7-1,4.2-1c1.1,0,2.3,0.3,3.5,0.8   c1.1,0.5,2.1,1.2,3.3,2.3L1074.2,330.7z"/>
	<path d="M1110.1,258.2v21.2h49.3v-21.2H1110.1z M1110.1,221.9V243h49.3v-21.2H1110.1z M1110.1,258.2v21.2h49.3v-21.2H1110.1z    M1110.1,221.9V243h49.3v-21.2H1110.1z M1110.1,258.2v21.2h49.3v-21.2H1110.1z M1110.1,221.9V243h49.3v-21.2H1110.1z M1110.1,258.2   v21.2h49.3v-21.2H1110.1z M1110.1,221.9V243h49.3v-21.2H1110.1z M1192.2,165.4h-82.1v5.1h118.3   C1217.3,167,1205.2,165.4,1192.2,165.4z M1110.1,258.2v21.2h49.3v-21.2H1110.1z M1110.1,221.9V243h49.3v-21.2H1110.1z    M1110.1,258.2v21.2h49.3v-21.2H1110.1z M1110.1,221.9V243h49.3v-21.2H1110.1z M1271.5,195.4c-3.6-3.6-7.7-7-11.9-9.8h-149.5v21.2   h49.3v-3.6h32.8c8.2,0,15.6,1.2,22.2,3.6h67C1278.5,202.7,1275.2,198.9,1271.5,195.4z M1110.1,258.2v21.2h49.3v-21.2H1110.1z    M1301,258.2h-50.3c0.6,4.1,0.9,8.3,0.9,12.7c0,2.9-0.2,5.7-0.5,8.5h50.2c0.1-2.7,0.3-5.6,0.3-8.5   C1301.6,266.5,1301.5,262.4,1301,258.2z M1248.9,294.4c-0.5,1.7-0.9,3.3-1.4,4.8c-2,6-4.5,11.5-7.9,16.3h52.9   c0.5-0.9,0.9-1.7,1.2-2.6c2.4-5.9,4.4-12.1,5.6-18.6H1248.9z M1110.1,294.4v21.2h49.3v-21.2H1110.1z M1223.8,330.7   c-2.1,1.4-4.2,2.4-6.5,3.3c-7.4,3.2-15.7,4.8-25.1,4.8h-32.8v-8.2h-49.3v21.2h155.4c2.1-1.5,4.1-3.3,6.1-5.3   c4.8-4.8,9.2-10.1,13-15.9H1223.8z M1110.1,376.5h82.1c16.5,0,31.3-2.7,44.9-8c1.2-0.5,2.3-0.9,3.5-1.5h-130.4V376.5z    M1110.1,221.9V243h49.3v-21.2H1110.1z M1293.8,228.8c-0.9-2.4-2-4.7-3.3-7h-54.1c4.8,5.7,8.6,12.7,11.2,20.7   c0,0.2,0.2,0.3,0.2,0.5h50.6C1297.2,238.2,1295.6,233.4,1293.8,228.8z M1110.1,258.2v21.2h49.3v-21.2H1110.1z M1110.1,221.9V243   h49.3v-21.2H1110.1z M1110.1,258.2v21.2h49.3v-21.2H1110.1z M1110.1,221.9V243h49.3v-21.2H1110.1z M1110.1,258.2v21.2h49.3v-21.2   H1110.1z M1110.1,221.9V243h49.3v-21.2H1110.1z M1110.1,258.2v21.2h49.3v-21.2H1110.1z M1110.1,221.9V243h49.3v-21.2H1110.1z    M1110.1,258.2v21.2h49.3v-21.2H1110.1z M1110.1,221.9V243h49.3v-21.2H1110.1z M1110.1,258.2v21.2h49.3v-21.2H1110.1z    M1110.1,221.9V243h49.3v-21.2H1110.1z"/>
	<path class="st0" d="M1479.7,207.1c-3.3-8.5-8.3-15.7-15.3-21.9c-6.8-6.2-15.6-11-26.3-14.5c-10.7-3.5-23.6-5.3-38.4-5.3h-74.5   v211.2h49v-70.6h25.4c14.7,0,27.2-1.8,37.9-5.3c10.7-3.5,19.5-8.3,26.4-14.7c7-6.3,12.1-13.9,15.6-22.7c3.5-8.8,5.1-18.4,5.1-29   C1484.6,224.6,1483,215.5,1479.7,207.1z M1427.2,260c-5.6,6-14.8,9.1-27.5,9.1h-25.5v-67h25.5c6.2,0,11.5,0.8,16,2.3   c4.5,1.7,8.2,3.8,11.2,6.7c3,2.9,5.1,6.3,6.7,10.3c1.4,3.9,2.1,8.3,2.1,13.2C1435.7,245.5,1432.8,253.9,1427.2,260z"/>
	<path class="st0" d="M1600.3,165.5h-50.2l-81.8,211h38.2c4.1,0,7.6-1.2,10.3-3.3c2.7-2.1,4.7-4.5,5.6-7.2l12.4-36.7h80.3l12.4,36.7   c1.1,3,3,5.6,5.8,7.6c2.9,2,6.3,3,10.6,3h37.9L1600.3,165.5z M1546.2,295.8l19.3-57.6c1.5-3.6,3-8,4.7-13c1.7-5,3.3-10.4,4.8-16.3   c1.7,5.8,3.3,11.2,5,16.2c1.7,5,3.2,9.4,4.4,13l19.3,57.7H1546.2z"/>
	<path class="st0" d="M1826.5,302.9c-2.1-3.5-4.5-6.4-7.4-8.8c-2.9-2.4-5.9-4.4-9.2-6c6.8-2.6,12.8-5.9,18.1-10   c5.3-4.1,9.7-8.8,13.3-13.9c3.6-5.3,6.3-10.9,8.2-16.9c1.8-6,2.7-12.5,2.7-19.3c0-9.1-1.7-17.4-4.7-24.9c-3-7.6-8-14.2-14.8-19.8   c-6.8-5.6-15.6-10-26.3-13.2c-10.7-3.2-23.7-4.7-39-4.7h-68.6v211.2h49v-78.1h12.4c3.8,0,6.7,0.6,8.8,1.8c2.1,1.1,3.9,3,5.4,5.8   l35.1,61.2c3.6,6.2,9.5,9.2,17.7,9.2h44.3L1826.5,302.9z M1802.5,244.7c-1.4,3.9-3.5,7.4-6.5,10.4c-3,2.9-6.8,5.3-11.5,7   c-4.7,1.7-10.4,2.6-17.1,2.6h-19.6v-62.6h19.6c12.5,0,21.9,2.7,28,7.9c6,5.3,9.1,12.5,9.1,21.8   C1804.5,236.4,1803.8,240.6,1802.5,244.7z"/>
	<path class="st0" d="M2036,165.4v38.8h-59.4v172.1h-49V204.2h-59.4v-38.8C1868.2,165.4,2036,165.4,2036,165.4z"/>
	<path class="st0" d="M2174,208.3c-1.5,2.3-3,4.1-4.5,5.1s-3.6,1.8-6.2,1.8c-2.3,0-4.5-0.8-7.1-2.1c-2.6-1.4-5.4-3-8.6-4.7   s-7-3.3-11-4.7c-4.2-1.4-8.9-2.1-14.2-2.1c-9.2,0-16,2-20.6,5.9c-4.5,3.9-6.8,9.2-6.8,15.9c0,4.2,1.4,7.7,4.1,10.6   c2.7,2.9,6.2,5.1,10.6,7.3c4.4,2.1,9.4,3.9,15.1,5.6c5.7,1.7,11.3,3.6,17.4,5.6c5.9,2.1,11.6,4.5,17.2,7.3   c5.6,2.9,10.7,6.3,15.1,10.7c4.4,4.4,8,9.7,10.6,15.9s4.1,13.8,4.1,22.5c0,9.8-1.7,18.9-5,27.4c-3.3,8.5-8.3,15.9-14.7,22.2   s-14.4,11.3-23.7,15s-20.1,5.4-32,5.4c-6.5,0-13.3-0.6-20.1-2c-6.8-1.4-13.5-3.3-19.8-5.7c-6.3-2.4-12.4-5.4-18-8.8   c-5.6-3.3-10.4-7.1-14.7-11.3l14.5-22.8c1.1-1.8,2.6-3.2,4.5-4.2c2-1.1,3.9-1.7,6.2-1.7c2.9,0,5.7,0.9,8.8,2.7   c2.9,1.8,6.3,3.9,10,6c3.8,2.3,8,4.2,12.8,6c4.8,1.8,10.6,2.7,17.1,2.7c8.9,0,15.7-2,20.7-5.9c5-3.9,7.4-10.1,7.4-18.6   c0-5-1.4-8.9-4.1-11.9c-2.7-3.2-6.2-5.6-10.6-7.7c-4.4-2-9.4-3.8-15-5.3c-5.6-1.5-11.3-3.3-17.2-5.1c-5.9-1.8-11.6-4.2-17.2-7   c-5.6-2.7-10.6-6.3-15-10.9c-4.4-4.5-8-10.1-10.6-16.8c-2.7-6.7-4.1-15-4.1-24.8c0-7.9,1.7-15.6,4.8-23.1s7.9-14.2,14.1-20.1   c6.2-5.9,13.8-10.6,22.7-14.1s19.3-5.3,30.8-5.3c6.5,0,12.7,0.5,18.9,1.5c6.2,1.1,11.9,2.6,17.4,4.5c5.4,2,10.6,4.4,15.4,7.1   c4.8,2.7,9.1,5.9,12.8,9.4L2174,208.3z"/>
	<g>
		<path d="M35.2,420h24.6c2.6,0,4.7,0.6,6.3,1.8c1.7,1.2,2.9,2.7,3.3,4.5l17.5,66c0.6,2.1,1.2,4.4,1.8,6.8c0.6,2.4,1.1,5,1.4,7.7    c0.6-2.7,1.2-5.3,2-7.7c0.8-2.4,1.4-4.7,2-6.8l20.6-66c0.5-1.7,1.7-3,3.3-4.4c1.7-1.4,3.8-2,6.2-2h8.8c2.6,0,4.7,0.6,6.3,1.7    s2.9,2.7,3.5,4.7l20.1,66c0.6,2,1.4,4.2,2,6.5c0.8,2.3,1.4,4.7,1.8,7.4c0.5-2.6,0.9-5,1.4-7.3c0.5-2.3,1.1-4.5,1.5-6.5l17.4-66    c0.5-1.7,1.5-3.2,3.3-4.4c1.7-1.2,3.8-2,6.2-2h23.1l-39.1,126.7h-26.6L130,468.3c-0.5-1.2-0.8-2.6-1.2-3.9c-0.5-1.5-0.9-3-1.2-4.7    c-0.5,1.7-0.8,3.2-1.2,4.7c-0.5,1.5-0.9,2.7-1.2,3.9l-24.2,78.6H74.3L35.2,420z"/>
		<path d="M231.1,546.7V416.4H258v47.9c3.2-2.7,6.8-5,10.6-6.8c3.8-1.7,8.3-2.6,13.6-2.6c5,0,9.2,0.9,13.1,2.6s7,4.1,9.7,7.1    c2.6,3,4.5,6.7,5.9,10.9c1.4,4.2,2,8.8,2,13.8v57.3h-26.9v-57.1c0-4.4-1.1-7.9-3-10.3s-5-3.6-8.9-3.6c-3,0-5.7,0.6-8.3,2    c-2.6,1.2-5.1,3-7.4,5.1v64.2h-27.2V546.7z"/>
		<path d="M414.7,482c-2.3-5.6-5.3-10.4-9.4-14.5c-4.1-4.1-8.9-7.1-14.5-9.2c-5.6-2.1-11.9-3.2-18.7-3.2c-6.8,0-13.2,1.1-18.9,3.2    c-5.7,2.1-10.6,5.3-14.7,9.2c-4.1,3.9-7.2,8.8-9.5,14.5c-2.3,5.6-3.3,12.1-3.3,19.2c0,7.2,1,13.8,3.3,19.5    c2.3,5.7,5.4,10.6,9.5,14.7c4.1,4.1,9.1,7.2,14.7,9.4c5.8,2.3,11.9,3.3,18.9,3.3c6.9,0,13.1-1.2,18.7-3.3    c5.6-2.3,10.4-5.3,14.5-9.4c4.1-3.9,7.1-8.9,9.4-14.7c2.3-5.9,3.3-12.2,3.3-19.5C418,494.1,417,487.8,414.7,482z M385.9,521.6    c-3,4.4-7.6,6.5-13.8,6.5c-6.4,0-11.2-2.1-14.1-6.5c-2.9-4.4-4.4-11-4.4-20c0-8.9,1.4-15.6,4.4-19.9c3-4.4,7.7-6.5,14.1-6.5    c6.2,0,10.9,2.1,13.8,6.5c2.9,4.4,4.4,11,4.4,19.9C390.2,510.6,388.7,517.2,385.9,521.6z"/>
		<path d="M460.7,416.6v130.3h-26.9V416.6H460.7z"/>
		<path d="M558.5,505.9c0.8-0.3,1.4-0.8,1.8-1.5c0.5-0.8,0.8-1.8,0.9-3c0.1-1.4,0.3-3,0.3-5c0-6.5-1.1-12.2-3-17.4    c-2-5.1-4.7-9.5-8.3-13c-3.6-3.6-7.9-6.3-12.8-8.2c-4.8-1.8-10.3-2.7-16.3-2.7c-6.8,0-13,1.2-18.4,3.6c-5.6,2.4-10.1,5.6-14.1,9.7    c-3.9,4.1-7,8.9-8.9,14.2c-2,5.3-3,11-3,17.1c0,8,1.2,15,3.6,21c2.4,6,5.7,11,9.8,15.1c4.1,4.1,8.9,7.3,14.5,9.2    c5.6,2,11.5,3,17.8,3c3,0,6.3-0.2,9.7-0.6c3.3-0.5,6.8-1.2,10.1-2.4c3.5-1.1,6.8-2.7,10-4.7c3.3-2.1,6.3-4.7,9.1-7.8l-7.9-9.7    c-1-1.7-2.7-2.4-4.8-2.4c-1.7,0-3.2,0.5-4.7,1.2c-1.5,0.8-3,1.7-4.8,2.6c-1.8,0.9-3.8,1.8-6,2.6c-2.3,0.8-5,1.1-8.2,1.1    c-5.9,0-10.6-1.8-14.4-5.1c-3.8-3.3-6-8.8-7-16.3h52C556.6,506.3,557.7,506.2,558.5,505.9z M503.7,490.9c0.9-5.6,2.9-9.8,5.7-12.7    c2.9-2.9,7-4.4,12.1-4.4c2.9,0,5.3,0.5,7.4,1.5c2.1,1.1,3.8,2.3,5,3.9c1.2,1.7,2.1,3.5,2.7,5.5c0.5,2,0.8,4.1,0.8,6.2H503.7z"/>
		<path d="M632.2,476.3c-0.8,1.1-1.5,1.8-2.3,2.4c-0.8,0.5-1.8,0.8-3,0.8s-2.6-0.3-3.8-0.8s-2.7-1.2-4.1-1.8c-1.4-0.6-3.2-1.2-5-1.8    c-1.8-0.6-3.9-0.8-6.3-0.8c-3.5,0-6,0.6-7.9,2c-1.8,1.4-2.7,3.2-2.7,5.4c0,1.7,0.6,3,1.8,4.2c1.2,1.1,2.7,2.1,4.7,2.9    c2,0.8,4.2,1.7,6.7,2.4c2.6,0.8,5,1.7,7.7,2.6c2.6,0.9,5.1,2,7.7,3.3c2.6,1.2,4.7,2.7,6.7,4.5c2,1.8,3.5,4.1,4.7,6.7    c1.2,2.6,1.8,5.7,1.8,9.4c0,4.5-0.8,8.6-2.4,12.4c-1.7,3.8-4.1,7-7.3,9.7s-7.3,4.8-11.9,6.3c-4.7,1.5-10.1,2.3-16.3,2.3    c-3,0-6.2-0.3-9.2-0.9c-3-0.6-6-1.4-8.9-2.4s-5.6-2.1-8-3.5c-2.4-1.4-4.5-2.9-6.2-4.4l6.2-10c0.8-1.2,1.7-2.1,2.7-2.7    c1.1-0.6,2.4-1.1,4.1-1.1c1.5,0,3,0.3,4.2,1.1c1.2,0.8,2.6,1.5,4.1,2.3c1.5,0.8,3.2,1.5,5.1,2.3c2,0.8,4.4,1.1,7.4,1.1    c2.1,0,3.9-0.2,5.3-0.6c1.5-0.5,2.6-1.1,3.5-1.8c0.9-0.8,1.5-1.7,2-2.6c0.5-0.9,0.6-1.8,0.6-2.9c0-1.8-0.6-3.3-1.8-4.4    c-1.2-1.2-2.9-2.1-4.8-3c-2-0.8-4.2-1.7-6.8-2.4c-2.6-0.8-5.1-1.5-7.7-2.4c-2.6-0.9-5.1-2-7.7-3.3c-2.6-1.4-4.8-3-6.8-5    s-3.6-4.4-4.8-7.4c-1.2-2.9-1.8-6.3-1.8-10.6c0-3.8,0.8-7.4,2.3-10.9c1.5-3.5,3.6-6.5,6.7-9.1s6.7-4.7,11.2-6.2    c4.5-1.5,9.7-2.3,15.7-2.3c3.2,0,6.3,0.3,9.4,0.9s5.9,1.4,8.6,2.4s5.1,2.3,7.3,3.6c2.3,1.4,4.1,3,5.9,4.7L632.2,476.3z"/>
		<path d="M725.6,476.3c-1.5-4.4-3.9-8.2-6.9-11.3c-3-3.2-6.8-5.6-11.2-7.4c-4.4-1.8-9.4-2.7-14.8-2.7c-7.6,0-14.7,1.2-21.3,3.5    c-6.7,2.3-12.7,5.9-18.1,10.7l4.8,8.5c0.8,1.4,1.8,2.4,3,3.3c1.2,0.9,2.9,1.4,4.7,1.4c2.1,0,3.9-0.3,5.4-1.1    c1.5-0.8,3-1.5,4.7-2.4c1.7-0.9,3.5-1.7,5.4-2.4c2.1-0.8,4.7-1.1,7.9-1.1c3.9,0,7.1,1.2,9.2,3.6c2.3,2.3,3.3,6.2,3.3,11.5v3.8    c-10.3,0-18.9,1-25.7,2.9c-6.8,1.8-12.2,4.2-16.2,7c-4.1,2.7-6.8,5.9-8.5,9.2c-1.7,3.3-2.4,6.6-2.4,9.8c0,4.1,0.8,7.6,2,10.7    c1.2,3.2,3,5.9,5.4,7.9c2.4,2,5.3,3.6,8.6,4.7c3.3,1.1,7.1,1.7,11.2,1.7c3.2,0,5.9-0.3,8.5-0.8c2.4-0.5,4.8-1.2,7.1-2.3    c2.3-0.9,4.4-2.1,6.5-3.6c2.1-1.4,4.2-3,6.5-5l2,5c0.9,2.3,2.1,3.6,3.3,4.4c1.2,0.8,3.2,1.1,5.7,1.1v0.1H728v-56.4    C728,485.3,727.3,480.6,725.6,476.3z M701.9,522.7c-2.6,2.7-5.3,4.7-7.9,5.9c-2.6,1.2-5.6,1.8-9.1,1.8c-3.3,0-5.8-0.8-7.6-2    c-1.7-1.2-2.6-3.3-2.6-6.5c0-1.5,0.5-3,1.2-4.4c0.8-1.4,2.3-2.6,4.2-3.6c2.1-1.1,4.8-1.8,8.3-2.6c3.5-0.8,7.9-1.1,13.3-1.1V522.7z    "/>
		<path d="M775.2,416.6v130.3h-26.9V416.6H775.2z"/>
		<path d="M873,505.9c0.8-0.3,1.4-0.8,1.8-1.5c0.4-0.8,0.8-1.8,0.9-3c0.2-1.4,0.3-3,0.3-5c0-6.5-1.1-12.2-3-17.4    c-2-5.1-4.7-9.5-8.3-13c-3.6-3.6-7.9-6.3-12.8-8.2c-4.8-1.8-10.3-2.7-16.3-2.7c-6.8,0-13,1.2-18.4,3.6c-5.6,2.4-10.1,5.6-14,9.7    c-3.9,4.1-7,8.9-8.9,14.2c-2,5.3-3,11-3,17.1c0,8,1.2,15,3.6,21c2.4,6,5.7,11,9.8,15.1s8.9,7.3,14.5,9.2c5.6,2,11.5,3,17.8,3    c3,0,6.3-0.2,9.7-0.6c3.3-0.5,6.8-1.2,10.1-2.4c3.5-1.1,6.8-2.7,10-4.7c3.3-2.1,6.4-4.7,9.1-7.8l-7.9-9.7    c-1.1-1.7-2.7-2.4-4.8-2.4c-1.7,0-3.2,0.5-4.7,1.2c-1.5,0.8-3,1.7-4.8,2.6c-1.8,0.9-3.8,1.8-6.1,2.6c-2.3,0.8-5,1.1-8.2,1.1    c-5.9,0-10.6-1.8-14.4-5.1c-3.8-3.3-6-8.8-7-16.3h52C871.2,506.3,872.2,506.2,873,505.9z M818.3,490.9c0.9-5.6,2.9-9.8,5.8-12.7    c2.9-2.9,7-4.4,12.1-4.4c2.9,0,5.3,0.5,7.4,1.5c2.1,1.1,3.8,2.3,5,3.9c1.2,1.7,2.1,3.5,2.7,5.5c0.5,2,0.8,4.1,0.8,6.2H818.3z"/>
		<path d="M1006.7,420v22.7h-52v29.6h39.9v21.8h-39.9v30.2h52V547h-81.6V420.3h81.6V420z"/>
		<path d="M1051.2,416.6v130.3h-26.9V416.6H1051.2z"/>
		<path d="M1149.1,505.9c0.8-0.3,1.4-0.8,1.8-1.5c0.5-0.8,0.8-1.8,0.9-3c0.1-1.4,0.3-3,0.3-5c0-6.5-1-12.2-3-17.4    c-2-5.1-4.7-9.5-8.3-13c-3.6-3.6-7.9-6.3-12.9-8.2c-4.8-1.8-10.3-2.7-16.3-2.7c-7,0-13.2,1.2-18.4,3.6c-5.6,2.4-10.1,5.6-14.1,9.7    c-3.9,4.1-7,8.9-8.9,14.2c-2,5.3-3,11-3,17.1c0,8,1.2,15,3.6,21c2.4,6,5.7,11,9.8,15.1c4.1,4.1,8.9,7.3,14.5,9.2    c5.6,2,11.5,3,17.8,3c3,0,6.4-0.2,9.7-0.6c3.3-0.5,6.8-1.2,10.1-2.4c3.5-1.1,6.8-2.7,10-4.7c3.3-2.1,6.3-4.7,9.1-7.8l-7.9-9.7    c-1.1-1.7-2.7-2.4-4.8-2.4c-1.7,0-3.2,0.5-4.7,1.2c-1.5,0.8-3,1.7-4.8,2.6c-1.8,0.9-3.8,1.8-6,2.6c-2.3,0.8-5,1.1-8.2,1.1    c-5.9,0-10.6-1.8-14.4-5.1c-3.8-3.3-6.1-8.8-6.9-16.3h52C1147.3,506.3,1148.4,506.2,1149.1,505.9z M1094.2,490.9    c0.9-5.6,2.9-9.8,5.7-12.7c2.9-2.9,6.9-4.4,12.1-4.4c2.9,0,5.3,0.5,7.4,1.5c2.1,1.1,3.8,2.3,5,3.9c1.2,1.7,2.1,3.5,2.7,5.5    c0.5,2,0.8,4.1,0.8,6.2H1094.2z"/>
		<path d="M1232.7,477.9c-0.8,1.1-1.7,1.8-2.4,2.4s-1.8,0.9-3.2,0.9s-2.6-0.3-3.6-0.9s-2.3-1.4-3.6-2.1c-1.4-0.8-2.9-1.5-4.7-2.1    c-1.8-0.6-4.1-0.9-6.7-0.9c-3.3,0-6.2,0.6-8.6,1.8c-2.4,1.2-4.4,3-5.9,5.3c-1.5,2.3-2.7,5-3.5,8.3c-0.8,3.3-1.1,7-1.1,11    c0,8.6,1.7,15.3,5,20c3.3,4.7,7.9,7,13.8,7c3.2,0,5.6-0.5,7.4-1.2s3.3-1.7,4.7-2.6c1.2-0.9,2.4-1.8,3.5-2.6s2.4-1.2,4.1-1.2    c2.1,0,3.8,0.8,4.8,2.4l7.9,9.7c-2.7,3.2-5.7,5.7-8.8,7.9c-3,2-6.2,3.6-9.4,4.7s-6.5,2-9.7,2.4c-3.3,0.5-6.3,0.6-9.5,0.6    c-5.4,0-10.7-1.1-15.7-3.2s-9.4-5.1-13.3-9.1c-3.8-3.9-6.8-8.9-9.1-14.7c-2.3-5.7-3.3-12.4-3.3-19.8c0-6.5,0.9-12.5,2.9-18.3    c2-5.6,4.8-10.6,8.6-14.7s8.5-7.4,14.1-9.8c5.6-2.4,12.1-3.6,19.5-3.6c7.1,0,13.3,1.1,18.6,3.3c5.3,2.3,10.1,5.6,14.5,10    L1232.7,477.9z"/>
		<path d="M1283.8,548.2c-4.2,0-8-0.6-11.3-1.8c-3.3-1.2-6-3-8.3-5.3c-2.3-2.3-3.9-5-5.1-8.3c-1.2-3.2-1.8-6.8-1.8-10.9v-46.6h-7.7    c-1.4,0-2.6-0.5-3.6-1.4s-1.5-2.3-1.5-3.9v-10.6l14.4-2.7l5.3-22.1c0.8-2.7,2.7-4.2,5.9-4.2h14.1v26.3h21.9v18.4h-21.9v44.7    c0,2.1,0.5,3.8,1.5,5.1s2.4,2,4.4,2c1.1,0,1.8-0.2,2.4-0.3c0.6-0.2,1.2-0.5,1.8-0.8c0.5-0.3,0.9-0.5,1.4-0.8    c0.5-0.2,0.9-0.3,1.5-0.3c0.8,0,1.5,0.2,2,0.6c0.5,0.3,1.1,0.9,1.5,1.8l8.2,12.8c-3.5,2.6-7.4,4.5-11.8,5.9    C1293,547.4,1288.5,548.2,1283.8,548.2z"/>
		<path d="M1321.7,546.7v-90.2h16c1.4,0,2.4,0.2,3.3,0.3c0.9,0.2,1.7,0.6,2.3,1.1c0.6,0.5,1.1,1.2,1.4,2c0.3,0.8,0.6,1.8,0.8,3    l1.5,8.5c3.3-5.1,7-9.1,11.2-12.1c4.1-3,8.6-4.4,13.5-4.4c4.1,0,7.4,1.1,10,3l-3.5,19.8c-0.3,1.2-0.8,2.1-1.4,2.6    c-0.8,0.5-1.7,0.8-2.7,0.8s-2.1-0.2-3.5-0.5c-1.4-0.3-3-0.5-5-0.5c-7.1,0-12.7,3.8-16.6,11.3v55.3    C1348.9,546.7,1321.7,546.7,1321.7,546.7z"/>
		<path d="M1476.3,482c-2.3-5.6-5.3-10.4-9.4-14.5c-4.1-4.1-8.9-7.1-14.5-9.2c-5.6-2.1-11.9-3.2-18.7-3.2s-13.1,1.1-18.9,3.2    c-5.8,2.1-10.6,5.3-14.7,9.2c-4.1,3.9-7.3,8.8-9.5,14.5c-2.3,5.6-3.3,12.1-3.3,19.2c0,7.2,1.1,13.8,3.3,19.5    c2.3,5.7,5.5,10.6,9.5,14.7c4.1,4.1,9.1,7.2,14.7,9.4c5.7,2.3,11.9,3.3,18.9,3.3c6.8,0,13.2-1.2,18.7-3.3    c5.6-2.3,10.4-5.4,14.5-9.4c4.1-3.9,7.1-8.8,9.4-14.7c2.3-5.9,3.3-12.2,3.3-19.5C1479.7,494.1,1478.6,487.6,1476.3,482z     M1447.5,521.6c-3,4.4-7.6,6.5-13.8,6.5c-6.3,0-11.2-2.1-14.1-6.5c-2.9-4.4-4.4-11-4.4-20c0-8.9,1.4-15.6,4.4-19.9    c3-4.4,7.7-6.5,14.1-6.5c6.2,0,10.9,2.1,13.8,6.5c2.9,4.4,4.4,11,4.4,19.9C1451.8,510.6,1450.3,517.2,1447.5,521.6z"/>
		<path d="M1494.5,546.7v-90.2h16.8c1.7,0,3,0.5,4.2,1.2c1.2,0.8,2,1.8,2.4,3.3l1.5,5.3c1.7-1.7,3.5-3.2,5.4-4.5    c1.8-1.4,3.8-2.6,5.9-3.5c2.1-0.9,4.4-1.7,6.8-2.3c2.4-0.6,5.1-0.8,8-0.8c5,0,9.4,0.9,13.1,2.6c3.8,1.7,7,4.1,9.7,7.1    c2.7,3,4.5,6.7,5.9,10.9c1.4,4.2,2,8.8,2,13.8v57.3h-26.9v-57.4c0-4.4-1.1-7.9-3-10.3c-2-2.4-5-3.6-8.9-3.6c-3,0-5.7,0.6-8.3,2    c-2.6,1.2-5.1,3-7.6,5.1v64.2h-27.1V546.7z"/>
		<path d="M1596.3,456.6v90.2h26.9v-90.2H1596.3z M1624.9,425.6c-0.9-1.8-2.1-3.5-3.6-5c-1.5-1.4-3.3-2.6-5.3-3.3    c-2-0.8-4.1-1.2-6.3-1.2c-2.3,0-4.2,0.5-6.2,1.2c-2,0.8-3.6,1.8-5.1,3.3c-1.5,1.4-2.7,3-3.5,5c-0.8,2-1.2,3.9-1.2,6.2    c0,2.1,0.3,4.2,1.2,6c0.9,2,2,3.6,3.5,5s3.2,2.6,5.1,3.3c2,0.8,3.9,1.2,6.2,1.2c2.3,0,4.4-0.3,6.3-1.2c2-0.8,3.8-1.8,5.3-3.3    c1.5-1.5,2.7-3.2,3.6-5c0.9-1.8,1.4-3.9,1.4-6C1626.3,429.7,1625.8,427.4,1624.9,425.6z"/>
		<path d="M1710,477.9c-0.8,1.1-1.7,1.8-2.4,2.4s-1.8,0.9-3.2,0.9s-2.6-0.3-3.6-0.9s-2.3-1.4-3.6-2.1c-1.4-0.8-2.9-1.5-4.7-2.1    c-1.8-0.6-4.1-0.9-6.7-0.9c-3.3,0-6.2,0.6-8.6,1.8c-2.4,1.2-4.4,3-5.9,5.3c-1.5,2.3-2.7,5-3.5,8.3c-0.8,3.3-1.2,7-1.2,11    c0,8.6,1.7,15.3,5,20c3.3,4.7,7.9,7,13.8,7c3.2,0,5.6-0.5,7.4-1.2s3.3-1.7,4.7-2.6c1.2-0.9,2.4-1.8,3.5-2.6s2.4-1.2,4.1-1.2    c2.1,0,3.8,0.8,4.8,2.4l7.9,9.7c-2.7,3.2-5.7,5.7-8.8,7.9c-3,2-6.2,3.6-9.4,4.7s-6.5,2-9.7,2.4c-3.2,0.5-6.3,0.6-9.5,0.6    c-5.4,0-10.7-1.1-15.7-3.2s-9.4-5.1-13.3-9.1c-3.9-3.9-6.8-8.9-9.1-14.7c-2.3-5.7-3.3-12.4-3.3-19.8c0-6.5,0.9-12.5,2.9-18.3    c2-5.6,4.8-10.6,8.6-14.7c3.8-4.1,8.5-7.4,14.1-9.8c5.6-2.4,12.1-3.6,19.5-3.6c7.1,0,13.3,1.1,18.6,3.3c5.3,2.3,10.1,5.6,14.5,10    L1710,477.9z"/>
		<path d="M1855.8,445.1c-2-5-5.1-9.4-9.2-13.2c-4.2-3.8-9.5-6.7-15.9-8.8c-6.4-2.1-14.1-3.2-23-3.2h-44.7v126.7h29.5v-42.3h15.4    c8.6,0,16.3-1,22.7-3.2c6.3-2.1,11.6-5,15.9-8.8c4.2-3.8,7.4-8.3,9.4-13.6c2-5.3,3-11,3-17.4    C1858.9,455.5,1857.8,450.1,1855.8,445.1z M1824.3,476.7c-3.3,3.6-8.8,5.5-16.5,5.5h-15.4v-40.1h15.3c3.8,0,7,0.5,9.7,1.4    c2.7,0.9,4.8,2.3,6.6,3.9c1.8,1.8,3,3.9,3.9,6.2c0.9,2.3,1.4,5,1.4,7.9C1829.2,468,1827.6,473.1,1824.3,476.7z"/>
		<path d="M1941.7,476.4c-1.5-4.4-3.9-8.2-6.9-11.3c-3-3.2-6.8-5.6-11.2-7.4c-4.4-1.8-9.4-2.7-14.8-2.7c-7.6,0-14.7,1.2-21.3,3.5    c-6.6,2.3-12.7,5.9-18.1,10.7l4.8,8.5c0.8,1.4,1.8,2.4,3.2,3.3c1.2,0.9,2.9,1.4,4.7,1.4c2.1,0,3.9-0.3,5.4-1.1    c1.5-0.8,3-1.5,4.7-2.4c1.7-0.9,3.5-1.7,5.4-2.4c2.1-0.8,4.7-1.1,7.9-1.1c3.9,0,7.1,1.2,9.2,3.6c2.3,2.3,3.3,6.2,3.3,11.5v3.8    c-10.4,0-18.9,1-25.7,2.9c-6.8,1.8-12.2,4.2-16.2,7c-4.1,2.7-6.8,5.9-8.5,9.2c-1.7,3.3-2.4,6.7-2.4,9.8c0,4.1,0.8,7.6,2,10.7    c1.4,3.2,3,5.7,5.4,7.9c2.4,2,5.3,3.6,8.6,4.7c3.3,1.1,7.1,1.7,11.2,1.7c3.2,0,5.9-0.3,8.5-0.8c2.6-0.5,4.8-1.4,7.1-2.3    c2.3-0.9,4.4-2.1,6.5-3.6c2.1-1.4,4.2-3,6.5-5l2,4.8c0.9,2.3,2,3.6,3.3,4.4c1.2,0.8,3.2,1.1,5.7,1.1v0.3h12.1v-56.4    C1944.1,485.5,1943.2,480.8,1941.7,476.4z M1918,522.7c-2.6,2.7-5.3,4.7-7.9,5.9c-2.6,1.2-5.6,1.8-9.1,1.8c-3.3,0-5.8-0.8-7.6-2    c-1.7-1.2-2.6-3.3-2.6-6.5c0-1.5,0.5-3,1.2-4.4c0.8-1.4,2.3-2.6,4.2-3.6c2.1-1.1,4.8-1.8,8.3-2.6c3.5-0.8,7.9-1.1,13.3-1.1V522.7z    "/>
		<path d="M1963.5,546.7v-90.2h16c1.4,0,2.4,0.2,3.3,0.3c0.9,0.2,1.7,0.6,2.3,1.1c0.6,0.5,1.1,1.2,1.4,2c0.3,0.8,0.6,1.8,0.8,3    l1.5,8.5c3.3-5.1,7-9.1,11.2-12.1c4.1-3,8.6-4.4,13.5-4.4c4.1,0,7.4,1.1,10,3l-3.5,19.8c-0.3,1.2-0.8,2.1-1.4,2.6    c-0.8,0.5-1.7,0.8-2.7,0.8c-1.1,0-2.1-0.2-3.5-0.5c-1.4-0.3-3-0.5-5-0.5c-7.1,0-12.7,3.8-16.6,11.3v55.3    C1990.7,546.7,1963.5,546.7,1963.5,546.7z"/>
		<path d="M2067,548.2c-4.2,0-8-0.6-11.3-1.8c-3.3-1.2-6-3-8.3-5.3c-2.3-2.3-3.9-5-5.1-8.3c-1.2-3.2-1.8-6.8-1.8-10.9v-46.6h-7.7    c-1.4,0-2.6-0.5-3.6-1.4s-1.5-2.3-1.5-3.9v-10.6l14.4-2.7l5.3-22.1c0.8-2.7,2.7-4.2,5.9-4.2h14.1v26.3h21.9v18.4h-21.9v44.7    c0,2.1,0.5,3.8,1.5,5.1s2.4,2,4.4,2c1.1,0,1.8-0.2,2.4-0.3c0.6-0.2,1.2-0.5,1.8-0.8c0.5-0.3,0.9-0.5,1.4-0.8    c0.5-0.2,0.9-0.3,1.5-0.3c0.8,0,1.5,0.2,2,0.6c0.5,0.3,1.1,0.9,1.5,1.8l8.2,12.8c-3.5,2.6-7.4,4.5-11.8,5.9    C2076.1,547.4,2071.5,548.2,2067,548.2z"/>
		<path d="M2159.9,476.3c-0.8,1.1-1.4,1.8-2.3,2.4c-0.8,0.5-1.8,0.8-3,0.8s-2.6-0.3-3.8-0.8c-1.2-0.6-2.6-1.2-4.1-1.8    c-1.5-0.6-3.2-1.2-5-1.8c-1.8-0.6-3.9-0.8-6.3-0.8c-3.5,0-6,0.6-7.9,2c-1.8,1.4-2.7,3.2-2.7,5.4c0,1.7,0.6,3,1.8,4.2    c1.2,1.1,2.7,2.1,4.7,2.9c2,0.9,4.2,1.7,6.7,2.4c2.4,0.8,5,1.7,7.7,2.6c2.6,0.9,5.1,2,7.7,3.3c2.6,1.2,4.7,2.7,6.7,4.5    c2,1.8,3.6,4.1,4.7,6.7c1.2,2.6,1.8,5.7,1.8,9.4c0,4.5-0.8,8.6-2.4,12.4c-1.7,3.8-4.1,7-7.3,9.7s-7.3,4.8-11.9,6.3    c-4.7,1.5-10.1,2.3-16.3,2.3c-3,0-6.2-0.3-9.2-0.9c-3-0.6-6-1.4-8.9-2.4c-2.9-1.1-5.6-2.1-8-3.5c-2.4-1.4-4.5-2.9-6.2-4.4l6.2-10    c0.8-1.2,1.7-2.1,2.7-2.7c1.1-0.6,2.4-1.1,4.1-1.1c1.5,0,3,0.3,4.2,1.1s2.6,1.5,4.1,2.3c1.5,0.8,3.2,1.5,5.1,2.3    c2,0.8,4.4,1.1,7.4,1.1c2.1,0,3.8-0.2,5.3-0.6c1.5-0.5,2.6-1.1,3.5-1.8c0.9-0.8,1.5-1.7,2-2.6c0.5-0.9,0.6-1.8,0.6-2.9    c0-1.8-0.6-3.3-1.8-4.4c-1.2-1.2-2.9-2.1-4.8-3c-2-0.8-4.2-1.7-6.8-2.4c-2.6-0.8-5.1-1.5-7.7-2.4c-2.6-0.9-5.1-2-7.7-3.3    s-4.8-3-6.8-5c-2-2-3.6-4.4-4.8-7.4c-1.2-2.9-1.8-6.3-1.8-10.6c0-3.8,0.8-7.4,2.3-10.9c1.5-3.5,3.8-6.5,6.7-9.1    c2.9-2.6,6.7-4.7,11.2-6.2c4.5-1.5,9.7-2.3,15.7-2.3c3.2,0,6.3,0.3,9.4,0.9c3,0.6,5.9,1.4,8.6,2.4c2.7,1.1,5.1,2.3,7.3,3.6    c2.1,1.4,4.1,3,5.9,4.7L2159.9,476.3z"/>
	</g>
	<g>
		<g>
			<g>
				<path d="M2533.3,403.7c-32.7-32.5-65.1-65.1-97.8-97.8c-2.1-2.1-4.2-2.9-7.2-2.9c-11.8,0.2-23.7,0-35.5,0.2      c-2.7,0-4.7-0.8-6.5-2.7c-8.2-8.3-16.5-16.6-24.9-24.9c-2-2-2.7-3.5-1.8-6.3c3.6-10.9-0.8-22.4-10.6-28.1      c-9.2-5.5-21.6-3.9-29,3.6c-8,8-9.7,19.9-3.9,29.5c6.1,9.8,17.2,14.2,28.1,10.6c2.9-0.9,4.4-0.2,6.2,1.7      c9.8,10,19.8,19.8,29.5,29.6c2,2,3.8,2.7,6.5,2.7c12.1-0.2,24.3,0,36.7,0c2.4-0.2,4.2,0.8,6,2.4c28.6,28.7,57.1,57.3,85.9,86      c1.8,1.7,2.4,3.5,2.4,6v81.5c0,9.8-5.7,15.6-15.6,15.6c-72.8,0.2-145.5,0.2-218.1,0c-9.7,0-15.4-5.8-15.4-15.4V361.1      c0-1.2-0.8-2.7,0.8-3.8c0.6,0.3,0.9,0.8,1.2,0.9l88.7,88.7c2.1,2.1,1.7,3.8,0.9,6.2c-3.3,10.9,1.1,21.9,10.7,27.7      c9.4,5.6,21.8,4.2,29.6-3.8c7.4-7.6,9.1-20.1,3.5-29.2c-5.6-9.4-17.1-13.9-27.7-10.6c-3,0.9-4.5,0.6-6.6-1.7      c-22.4-22.5-44.9-45-67.4-67.6c-17.2-17.2-34.5-34.5-52.6-52.7c-0.1,1.8-0.1,2.4-0.1,3v232.8c0.1,19,15.1,33.2,34.3,33.2      c73,0.2,145.7,0.2,218.6,0c20,0,34.5-14.5,34.5-34.5V410.7C2536,407.5,2535.2,405.7,2533.3,403.7z M2336.3,270.4      c-4.7-0.1-8.3-4.2-8.2-8.8c0-4.8,4.2-8.8,8.9-8.5c4.5,0.2,8.3,4.4,8.2,8.8C2345.2,266.6,2340.9,270.6,2336.3,270.4z       M2382.3,451.2c4.8-0.2,8.9,3.8,8.9,8.5c0,4.5-3.9,8.5-8.5,8.8c-4.5,0.2-8.5-3.6-8.8-8.3      C2373.7,455.2,2377.3,451.2,2382.3,451.2z M2392.1,567.4c-11-0.3-20-9.4-20-20.2c0-11.2,9.4-20.7,20.6-20.3      c11.2,0.1,20.1,9.4,19.9,20.7C2412.4,558.5,2403,567.5,2392.1,567.4z"/>
			</g>
		</g>
		<g>
			<g>
				<path class="st0" d="M2501.5,98.6h-218.1c-20.1,0-34.6,14.5-34.6,34.6v112.8c0,2.4,0.6,4.2,2.4,6c32.8,32.8,65.8,65.7,98.6,98.5      c1.7,1.8,3.5,2.6,6,2.6c12.1-0.2,24.5,0,36.7-0.2c2.7,0,4.5,0.9,6.3,2.7c8.2,8.3,16.5,16.6,25.1,24.9c2.1,2.1,2.4,3.9,1.5,6.7      c-3.5,10.9,1.1,22.2,10.7,27.8c9.4,5.4,21.2,4.2,29-3.6c7.9-7.4,9.4-19.7,4.2-29c-5.4-9.7-16.9-14.5-27.7-11      c-3.5,1.1-5.3,0.1-7.6-2.1c-9.4-9.7-19-19-28.6-28.7c-2-2-4.2-3-7.1-2.9c-11.9,0.2-24,0-35.8,0c-2.7,0-4.5-0.6-6.5-2.6      c-28.6-28.7-57.1-57.1-85.9-85.8c-1.7-1.7-2.4-3-2.4-5.4v-82.5c0-9.2,6-15.1,15.3-15.1c72.9-0.1,145.7-0.1,218.6,0      c9.7,0,15.4,5.7,15.4,15.4V296c0,0.9,0.8,2.4-0.8,3.3c-0.6-0.3-0.9-0.6-1.2-0.9l-88.7-88.7c-2.1-2-1.7-3.8-0.9-6.1      c3-11.2-1.2-22.4-11-28c-9.4-5.4-21.5-3.8-29.2,3.9c-7.4,7.6-8.9,20-3.5,29.2c5.6,9.4,16.6,13.9,27.7,10.6c3.3-0.9,4.8,0,7.1,2      c37.8,37.8,75.3,75.6,113.1,113.2c1.8,1.8,3.5,4.2,5.3,6.2c0.3-0.2,0.9-0.6,1.2-0.9c0-0.6,0.2-1.1,0.2-1.8V132.1      C2535.8,112.9,2520.9,98.6,2501.5,98.6z M2448.3,385.6c4.7,0.2,8.3,3.9,8.2,8.8c0,4.8-3.9,8.8-8.8,8.5c-4.7-0.2-8.3-4.2-8.3-8.8      C2439.4,389.4,2443.6,385.3,2448.3,385.6z M2412.2,127.6h-39.8c-3.8,0-6.5-1.7-6.5-5.4c0-3.8,2.7-5.4,6.5-5.4h39.8      c3.8,0,6.5,1.5,6.5,5.4C2418.7,125.9,2416,127.6,2412.2,127.6z M2402.1,204.8c-4.5,0-8.3-3.8-8.5-8.3c0-4.7,4.2-8.9,8.9-8.8      c4.5,0,8.3,3.8,8.3,8.3C2410.7,201,2407.1,204.8,2402.1,204.8z"/>
			</g>
		</g>
		<g>
			<g>
				<path d="M2471.1,453.6c-3.3-12.8-16.2-20.7-29-17.1c-4.4,1.2-6.4,0.1-9.2-2.7c-16.9-17.1-34.3-33.5-50.6-51.2      c-8.3-9.2-17.1-14.3-29.6-11.9c-3.3,0.6-5.6-0.9-8-3.3c-30.4-30.5-60.6-60.8-91-91.1c-1.5-1.2-2.6-3-5.1-3.9      c0,5.6,0.1,11,0,16.5c-0.2,3.3,0.9,5.4,3,7.5c25.6,25.4,50.9,50.9,76.6,76.5c4.4,4.4,8,10,13,12.5c5.4,2.6,12.4,0.6,18.7,0.8      c0,0,0.2,0,0.3,0c2-0.1,3.5,0.6,4.8,1.8c19.6,19.8,39.1,39.5,58.9,59c1.5,1.5,1.8,2.7,1.1,4.8c-2,4.7-2,9.8-0.6,14.7      c3.8,12.7,16.9,20,29.6,16.5C2467.2,479.6,2474.6,466.3,2471.1,453.6z M2448,468.4c-4.5-0.1-8.5-4.2-8.5-8.5      c-0.2-4.8,3.8-8.8,8.8-8.8c4.5,0,8.3,3.8,8.5,8.3C2456.6,464.5,2452.7,468.4,2448,468.4z"/>
			</g>
		</g>
		<g>
			<g>
				<path class="st0" d="M2536.3,367.6c-0.2-3.5-1.2-5.7-3.3-8c-25.9-25.5-51.8-50.8-76.9-77.1c-8.9-9.4-17.8-15.1-30.8-12.5      c-2.7,0.3-4.7-0.8-6.7-2.7c-19-19.2-38.1-38.2-57.3-57.3c-2-2-2.4-3.6-1.5-6.4c3.3-10.9-0.9-22.2-10.3-27.8      c-9.4-5.7-21.8-4.4-29.6,3.5c-7.9,7.9-9.2,19.9-3.6,29.6c5.6,9.4,17.1,13.8,27.8,10.6c2.9-1.1,4.5-0.3,6.6,1.7      c17.1,17.4,35.1,34.1,51.5,52.1c8.5,9.4,17.5,14.5,30.4,12.4c2.9-0.6,5.1,0.8,7.3,2.9c30.8,31,61.8,62.1,93,93      c0.9,0.9,1.5,2.4,3.5,2.4C2536.3,378.5,2536.1,373,2536.3,367.6z M2336.6,204.8c-4.8,0-8.8-3.8-8.5-8.8c0-4.7,3.6-8.3,8.3-8.3      c4.7,0,8.5,3.6,8.8,8.3C2345.4,200.7,2341.6,204.8,2336.6,204.8z"/>
			</g>
		</g>
	</g>
	<g>
		<path class="st1" d="M1039.1,206.8h39.9l-5,6.6c-1.1,1.4-2.3,2.6-3.8,3.6c-1.5,1.1-3.5,1.7-6,1.7c-1.8,0-3.5-0.3-5-1.2    c-1.5-0.8-3.2-1.7-4.8-2.7c-1.8-1.2-3.6-2.4-5.8-3.6c-2.1-1.4-4.5-2.6-7.4-3.6C1040.6,207.2,1039.8,206.9,1039.1,206.8z"/>
		<path class="st1" d="M1068.6,324.8l5.6,5.9h-27.8c2.4-1.5,5-3.3,7.4-5.4c1.1-1.1,2.4-1.8,3.8-2.4c1.4-0.6,2.7-1,4.2-1    c1.1,0,2.3,0.3,3.5,0.8C1066.3,323,1067.3,323.8,1068.6,324.8z"/>
	</g>
</g>
</svg>